HIERARCHY
ROOT hips
{
  OFFSET 0 10.6860622 2.3727825e-15
  CHANNELS 6 Xposition Yposition Zposition Yrotation Xrotation Zrotation
  JOINT leftUpperLeg
  {
    OFFSET 0.6642549969 -0.9402397400000004 0
    CHANNELS 3 Yrotation Xrotation Zrotation
    JOINT leftLowerLeg
    {
      OFFSET 0 -3.997221335632195 0
      CHANNELS 3 Yrotation Xrotation Zrotation
      JOINT leftFoot
      {
        OFFSET -0.13777839790000004 -4.6145792000000005 -0.22186036399999998
        CHANNELS 3 Yrotation Xrotation Zrotation
        JOINT leftToes
        {
          OFFSET -0.03777410834999995 -0.9130806927000008 0.85230013
          CHANNELS 3 Yrotation Xrotation Zrotation
          End Site
          {
            OFFSET -0.03777410834999995 -0.9130806927000008 0.85230013
          }
        }
      }
    }
  }
  JOINT rightUpperLeg
  {
    OFFSET -0.6642778626 -0.9402397400000004 0
    CHANNELS 3 Yrotation Xrotation Zrotation
    JOINT rightLowerLeg
    {
      OFFSET 0 -3.997221452859387 0
      CHANNELS 3 Yrotation Xrotation Zrotation
      JOINT rightFoot
      {
        OFFSET 0.1377926176 -4.6145792000000005 -0.22185782299999995
        CHANNELS 3 Yrotation Xrotation Zrotation
        JOINT rightToes
        {
          OFFSET 0.037780746850000047 -0.9130806927000008 0.85230167
          CHANNELS 3 Yrotation Xrotation Zrotation
          End Site
          {
            OFFSET 0.037780746850000047 -0.9130806927000008 0.85230167
          }
        }
      }
    }
  }
  JOINT spine
  {
    OFFSET 0 0.13988381660000015 0
    CHANNELS 3 Yrotation Xrotation Zrotation
    JOINT chest
    {
      OFFSET 0 0.6191039003973773 0
      CHANNELS 3 Yrotation Xrotation Zrotation
      JOINT upperChest
      {
        OFFSET 0 0.9855186130586943 0
        CHANNELS 3 Yrotation Xrotation Zrotation
        JOINT leftShoulder
        {
          OFFSET 0.1807663869 1.5087829790000005 0
          CHANNELS 3 Yrotation Xrotation Zrotation
          JOINT leftUpperArm
          {
            OFFSET 0.5985063006419806 0 0
            CHANNELS 3 Yrotation Xrotation Zrotation
            JOINT leftLowerArm
            {
              OFFSET 2.2993332369501065 0 0
              CHANNELS 3 Yrotation Xrotation Zrotation
              JOINT leftHand
              {
                OFFSET 2.395047042602395 0 0
                CHANNELS 3 Yrotation Xrotation Zrotation
                JOINT leftIndexProximal
                {
                  OFFSET 0.5766295810000004 0.04556643899499946 0.17265095988184
                  CHANNELS 3 Yrotation Xrotation Zrotation
                  JOINT leftIndexIntermediate
                  {
                    OFFSET 0.2957229000000008 -0.019352197700001517 -0.007932640616999987
                    CHANNELS 3 Yrotation Xrotation Zrotation
                    JOINT leftIndexDistal
                    {
                      OFFSET 0.19008243099999922 -0.012484908149998475 -0.002786250786000012
                      CHANNELS 3 Yrotation Xrotation Zrotation
                      End Site
                      {
                        OFFSET 0.19008243099999922 -0.012484908149998475 -0.002786250786000012
                      }
                    }
                  }
                }
                JOINT leftMiddleProximal
                {
                  OFFSET 0.5834975091000001 0.0524350405149987 0.02204081888183999
                  CHANNELS 3 Yrotation Xrotation Zrotation
                  JOINT leftMiddleIntermediate
                  {
                    OFFSET 0.33880573540000003 -0.019871473270000717 -0.00000971183179999946
                    CHANNELS 3 Yrotation Xrotation Zrotation
                    JOINT leftMiddleDistal
                    {
                      OFFSET 0.20676022730000088 -0.012221336379999448 0.0001471936708000235
                      CHANNELS 3 Yrotation Xrotation Zrotation
                      End Site
                      {
                        OFFSET 0.20676022730000088 -0.012221336379999448 0.0001471936708000235
                      }
                    }
                  }
                }
                JOINT leftLittleProximal
                {
                  OFFSET 0.5344154683999995 -0.012880921405001189 -0.24414037221816004
                  CHANNELS 3 Yrotation Xrotation Zrotation
                  JOINT leftLittleIntermediate
                  {
                    OFFSET 0.21758961730000093 -0.011650919939999227 0.011893592810000034
                    CHANNELS 3 Yrotation Xrotation Zrotation
                    JOINT leftLittleDistal
                    {
                      OFFSET 0.1475273964999999 -0.008152365682999818 0.006001092492999946
                      CHANNELS 3 Yrotation Xrotation Zrotation
                      End Site
                      {
                        OFFSET 0.1475273964999999 -0.008152365682999818 0.006001092492999946
                      }
                    }
                  }
                }
                JOINT leftRingProximal
                {
                  OFFSET 0.5799399463000003 0.026911854694997794 -0.12150566991816003
                  CHANNELS 3 Yrotation Xrotation Zrotation
                  JOINT leftRingIntermediate
                  {
                    OFFSET 0.26167887460000006 -0.013480186499999602 0.010996293000000053
                    CHANNELS 3 Yrotation Xrotation Zrotation
                    JOINT leftRingDistal
                    {
                      OFFSET 0.17667108799999987 -0.008990287899999228 0.0055541023999999065
                      CHANNELS 3 Yrotation Xrotation Zrotation
                      End Site
                      {
                        OFFSET 0.17667108799999987 -0.008990287899999228 0.0055541023999999065
                      }
                    }
                  }
                }
                JOINT leftThumbProximal
                {
                  OFFSET 0.11018806699999972 -0.09448718900500053 0.17047963138184
                  CHANNELS 3 Yrotation Xrotation Zrotation
                  JOINT leftThumbIntermediate
                  {
                    OFFSET 0.31062601459999983 -0.08126270900000132 0.15443142000000007
                    CHANNELS 3 Yrotation Xrotation Zrotation
                    JOINT leftThumbDistal
                    {
                      OFFSET 0.21627175790000086 -0.08833193599999878 0.018771167799999988
                      CHANNELS 3 Yrotation Xrotation Zrotation
                      End Site
                      {
                        OFFSET 0.21627175790000086 -0.08833193599999878 0.018771167799999988
                      }
                    }
                  }
                }
              }
            }
          }
        }
        JOINT neck
        {
          OFFSET 0 1.5463305265074576 0
          CHANNELS 3 Yrotation Xrotation Zrotation
          JOINT head
          {
            OFFSET 0 0.8456443600000344 0
            CHANNELS 3 Yrotation Xrotation Zrotation
            JOINT leftEye
            {
              OFFSET 0.30408573140000006 0.5104519199999995 0.1276382305
              CHANNELS 3 Yrotation Xrotation Zrotation
              End Site
              {
                OFFSET 0.30408573140000006 0.5104519199999995 0.1276382305
              }
            }
            JOINT rightEye
            {
              OFFSET -0.30409491089999996 0.5104519199999995 0.1276379445
              CHANNELS 3 Yrotation Xrotation Zrotation
              End Site
              {
                OFFSET -0.30409491089999996 0.5104519199999995 0.1276379445
              }
            }
            JOINT jaw
            {
              OFFSET -3.155239131000001e-7 -0.11984121820000082 0.60178107
              CHANNELS 3 Yrotation Xrotation Zrotation
              End Site
              {
                OFFSET -3.155239131000001e-7 -0.11984121820000082 0.60178107
              }
            }
          }
        }
        JOINT rightShoulder
        {
          OFFSET -0.1807303465 1.5087829790000005 0
          CHANNELS 3 Yrotation Xrotation Zrotation
          JOINT rightUpperArm
          {
            OFFSET -0.5985063796536958 0 0
            CHANNELS 3 Yrotation Xrotation Zrotation
            JOINT rightLowerArm
            {
              OFFSET -2.2993322059002854 0 0
              CHANNELS 3 Yrotation Xrotation Zrotation
              JOINT rightHand
              {
                OFFSET -2.395045314457259 0 0
                CHANNELS 3 Yrotation Xrotation Zrotation
                JOINT rightIndexProximal
                {
                  OFFSET -0.5764487688300002 0.0441371204405987 0.17361932004999997
                  CHANNELS 3 Yrotation Xrotation Zrotation
                  JOINT rightIndexIntermediate
                  {
                    OFFSET -0.29573011380000047 -0.01934826376999843 -0.007698921482999974
                    CHANNELS 3 Yrotation Xrotation Zrotation
                    JOINT rightIndexDistal
                    {
                      OFFSET -0.19008373999999884 -0.012503266380000655 -0.0026365778999999897
                      CHANNELS 3 Yrotation Xrotation Zrotation
                      End Site
                      {
                        OFFSET -0.19008373999999884 -0.012503266380000655 -0.0026365778999999897
                      }
                    }
                  }
                }
                JOINT rightMiddleProximal
                {
                  OFFSET -0.5834852037300005 0.05211639405060153 0.02307162440000001
                  CHANNELS 3 Yrotation Xrotation Zrotation
                  JOINT rightMiddleIntermediate
                  {
                    OFFSET -0.33880114510000003 -0.019952774050000954 0.0002455003561999819
                    CHANNELS 3 Yrotation Xrotation Zrotation
                    JOINT rightMiddleDistal
                    {
                      OFFSET -0.20675694929999955 -0.012273788999999091 0.00030209124000002766
                      CHANNELS 3 Yrotation Xrotation Zrotation
                      End Site
                      {
                        OFFSET -0.20675694929999955 -0.012273788999999091 0.00030209124000002766
                      }
                    }
                  }
                }
                JOINT rightLittleProximal
                {
                  OFFSET -0.5346811737299992 -0.011214256288399227 -0.24363941305000003
                  CHANNELS 3 Yrotation Xrotation Zrotation
                  JOINT rightLittleIntermediate
                  {
                    OFFSET -0.21757715980000092 -0.011771559690000988 0.01201554387
                    CHANNELS 3 Yrotation Xrotation Zrotation
                    JOINT rightLittleDistal
                    {
                      OFFSET -0.1475201849000004 -0.00822055339600003 0.006082065407000015
                      CHANNELS 3 Yrotation Xrotation Zrotation
                      End Site
                      {
                        OFFSET -0.1475201849000004 -0.00822055339600003 0.006082065407000015
                      }
                    }
                  }
                }
                JOINT rightRingProximal
                {
                  OFFSET -0.5800810755299999 0.027657985680600072 -0.12066365025000003
                  CHANNELS 3 Yrotation Xrotation Zrotation
                  JOINT rightRingIntermediate
                  {
                    OFFSET -0.26166445029999974 -0.013623118409999302 0.011164098990000045
                    CHANNELS 3 Yrotation Xrotation Zrotation
                    JOINT rightRingDistal
                    {
                      OFFSET -0.17666387530000027 -0.009072900100000503 0.005668185599999959
                      CHANNELS 3 Yrotation Xrotation Zrotation
                      End Site
                      {
                        OFFSET -0.17666387530000027 -0.009072900100000503 0.005668185599999959
                      }
                    }
                  }
                }
                JOINT rightThumbProximal
                {
                  OFFSET -0.10997596379000074 -0.09577489355940072 0.16989765924999997
                  CHANNELS 3 Yrotation Xrotation Zrotation
                  JOINT rightThumbIntermediate
                  {
                    OFFSET -0.31036620999999986 -0.08229339117999834 0.15440884469999996
                    CHANNELS 3 Yrotation Xrotation Zrotation
                    JOINT rightThumbDistal
                    {
                      OFFSET -0.21631306399999906 -0.08825326400000111 0.018656797720000014
                      CHANNELS 3 Yrotation Xrotation Zrotation
                      End Site
                      {
                        OFFSET -0.21631306399999906 -0.08825326400000111 0.018656797720000014
                      }
                    }
                  }
                }
              }
            }
          }
        }
      }
    }
  }
}
MOTION
Frames: 7
Frame Time: 0.03333333333333333
0.11528199550955653 -0.21041470964307968 3.5115588606341612 0 28.125364482506747 0 20.51349889607778 -54.83799139923081 -1.6759213943691127 5.335339592171966 26.951177489234315 3.452854894909512 7.315223456799214 6.255604385458869 5.132470977743157 0 0 0 -17.06881635350438 -54.6875873088865 -1.8336255832029569 -4.983325936189219 25.514713132649284 -3.2541187738460335 -8.785784612703875 8.264072761889812 -3.7903743278082094 0 0 0 -0.44531820399071526 -2.0851067326496375 0.292407928280825 -1.9343081135666809 -7.702715851753901 1.7500350361891324 0 0 0 -24.466522078398956 29.15635680678249 -32.600011940937165 40.92455504501344 -56.46018869566538 -79.64022017185951 1.323494591159948 -12.036685324567712 -104.94299223224996 100.53409230425181 51.20965121250461 142.63315760135458 0 0 0 0 0 0 0 0 0 0 0 0 0 0 0 0 0 0 0 0 0 0 0 0 0 0 0 0 0 0 0 0 0 0 0 0 0 0 0 0 0 0 0 0 0 9.069713649729596 0.5434218396305179 16.535460841397594 0 1.6798770322062526 0 0 0 0 0 0 0 0 0 0 20.64621152702812 31.030945912413 29.89924233065221 -41.461621798817454 -56.47477862196243 79.20542889483204 -1.23496440920236 -11.856282469774818 106.80662907115628 -104.74057287435434 51.36451087012821 -138.78230020310005 0 0 0 0 0 0 0 0 0 0 0 0 0 0 0 0 0 0 0 0 0 0 0 0 0 0 0 0 0 0 0 0 0 0 0 0 0 0 0 0 0 0 0 0 0
0.11528199550955653 -0.21041470964307968 3.4896306752839124 0 28.75279891275767 0 20.525266203452944 -55.54382757798763 -1.9173715147296977 5.335339592171966 26.951177489234315 3.452854894909512 7.5113092420785605 6.446620201207177 5.170795705125484 0 0 0 -16.97465705379493 -55.390194236662474 -1.6986593531318575 -4.983325936189219 25.514713132649284 -3.2541187738460335 -9.003817285002242 8.462956314551311 -3.8271987257631013 0 0 0 -0.4453806718581978 -2.285140549622266 0.294002878190832 -1.9376157809896897 -8.405773643532688 1.7739618815637102 0 0 0 -24.445599028948912 29.316471978863028 -32.613499491652604 40.92455504501344 -56.46018869566538 -79.64022017185951 1.3129682306063195 -12.014862049149139 -105.1288243713204 100.30445784713203 50.98061109408569 142.37283686963312 0 0 0 0 0 0 0 0 0 0 0 0 0 0 0 0 0 0 0 0 0 0 0 0 0 0 0 0 0 0 0 0 0 0 0 0 0 0 0 0 0 0 0 0 0 9.017359768383066 0.06859153078310991 16.364143792958263 0 0.6166750017190811 0 0 0 0 0 0 0 0 0 0 20.608569978361125 31.19152804324564 29.89678811403663 -41.461621798817454 -56.47477862196243 79.20542889483204 -1.23496440920236 -11.856282469774818 106.80662907115628 -104.74057287435434 51.36451087012821 -138.78230020310005 0 0 0 0 0 0 0 0 0 0 0 0 0 0 0 0 0 0 0 0 0 0 0 0 0 0 0 0 0 0 0 0 0 0 0 0 0 0 0 0 0 0 0 0 0
0.11528199550955653 -0.21041470964307968 3.4677027583259346 0 29.38014825323228 0 20.542593063894987 -56.24950650272763 -2.1634658823224475 5.335339592171966 26.951177489234315 3.452854894909512 7.70759325726511 6.637497843529912 5.209791627699699 0 0 0 -16.88175812319392 -56.0928037165372 -1.5633446679878877 -4.983325936189219 25.514713132649284 -3.2541187738460335 -9.222085675954839 8.661692188544512 -3.8648059016306795 0 0 0 -0.44544758950689045 -2.4851701919062954 0.2955983431927169 -1.9412272391205803 -9.10872169993841 1.797972708299293 0 0 0 -24.424703722066806 29.476595592951302 -32.62695445824076 40.92455504501344 -56.46018869566538 -79.64022017185951 1.3023805736744825 -11.99308243825853 -105.31463653120531 100.07760631341111 50.75091404733522 142.11525935411007 0 0 0 0 0 0 0 0 0 0 0 0 0 0 0 0 0 0 0 0 0 0 0 0 0 0 0 0 0 0 0 0 0 0 0 0 0 0 0 0 0 0 0 0 0 8.966412211107414 -0.4065031059401704 16.19321401283721 0 -0.4476250028189572 0 0 0 0 0 0 0 0 0 0 20.57085707273321 31.352107182665243 29.894204721463794 -41.461621798817454 -56.47477862196243 79.20542889483204 -1.23496440920236 -11.856282469774818 106.80662907115628 -104.74057287435434 51.36451087012821 -138.78230020310005 0 0 0 0 0 0 0 0 0 0 0 0 0 0 0 0 0 0 0 0 0 0 0 0 0 0 0 0 0 0 0 0 0 0 0 0 0 0 0 0 0 0 0 0 0
0.11528199550955653 -0.21041470964307968 3.445774304583414 0 30.007402059563695 0 20.565793455484915 -56.95494153312763 -2.414529196883268 5.335339592171966 26.951177489234315 3.452854894909512 7.904080599792371 6.828236694048103 5.2494603702270135 0 0 0 -16.790192551222802 -56.79536859288574 -1.4276042649101652 -4.983325936189219 25.514713132649284 -3.2541187738460335 -9.440596365541602 8.860279088900262 -3.903198842460014 0 0 0 -0.4455209379214257 -2.6851968141966287 0.29719422180216215 -1.9451439438177902 -9.811511295680575 1.822070621359851 0 0 0 -24.403813193983368 29.63671715527245 -32.640358140396614 40.92455504501344 -56.46018869566538 -79.64022017185951 1.2916979343589128 -11.971309822463967 -105.5004323317143 99.85349822434543 50.52059827442579 141.86038511244885 0 0 0 0 0 0 0 0 0 0 0 0 0 0 0 0 0 0 0 0 0 0 0 0 0 0 0 0 0 0 0 0 0 0 0 0 0 0 0 0 0 0 0 0 0 8.91686727649409 -0.8818428130567199 16.022658931644294 0 -1.5128499874223986 0 0 0 0 0 0 0 0 0 0 20.533062631558025 31.512688585767716 29.891484485031466 -41.461621798817454 -56.47477862196243 79.20542889483204 -1.23496440920236 -11.856282469774818 106.80662907115628 -104.74057287435434 51.36451087012821 -138.78230020310005 0 0 0 0 0 0 0 0 0 0 0 0 0 0 0 0 0 0 0 0 0 0 0 0 0 0 0 0 0 0 0 0 0 0 0 0 0 0 0 0 0 0 0 0 0
0.11528199550955653 -0.21041470964307968 3.4238463876254364 0 30.634489552427507 0 20.595218551581514 -57.66009457959447 -2.6709044648702776 5.335339592171966 26.951177489234315 3.452854894909512 8.100770722913785 7.018828811606485 5.289802317043022 0 0 0 -16.699984791789944 -57.49780431717022 -1.291406765345007 -4.983325936189219 25.514713132649284 -3.2541187738460335 -9.659345485789547 9.05870706049934 -3.9423745567667567 0 0 0 -0.4455997611371517 -2.8852183655829955 0.2987905905515391 -1.9493683431438507 -10.514082547936603 1.8462643043452676 0 0 0 -24.382923557228633 29.79683790959702 -32.653709416675106 40.92455504501344 -56.46018869566538 -79.64022017185951 1.2809394014214117 -11.94958084967875 -105.68619890269228 99.63207751685447 50.28966910975612 141.608159225788 0 0 0 0 0 0 0 0 0 0 0 0 0 0 0 0 0 0 0 0 0 0 0 0 0 0 0 0 0 0 0 0 0 0 0 0 0 0 0 0 0 0 0 0 0 8.868720677621369 -1.357400074501632 15.852460205257874 0 -2.57881195003476 0 0 0 0 0 0 0 0 0 0 20.49518815581296 31.673253464979133 29.888627594395004 -41.461621798817454 -56.47477862196243 79.20542889483204 -1.23496440920236 -11.856282469774818 106.80662907115628 -104.74057287435434 51.36451087012821 -138.78230020310005 0 0 0 0 0 0 0 0 0 0 0 0 0 0 0 0 0 0 0 0 0 0 0 0 0 0 0 0 0 0 0 0 0 0 0 0 0 0 0 0 0 0 0 0 0
0.11528199550955653 -0.21041470964307968 3.4019182022751875 0 31.261393470250475 0 20.63123084567539 -58.364870104911006 -2.932964327065158 5.335339592171966 26.951177489234315 3.452854894909512 8.29766620124303 7.209272686246204 5.330817895213315 0 0 0 -16.61121389419762 -58.200069428463614 -1.1546750444684255 -4.983325936189219 25.514713132649284 -3.2541187738460335 -9.87834108562131 9.256973034466645 -3.982338489294139 0 0 0 -0.44568401138688307 -3.0852330067945455 0.3003874634244202 -1.9539032116192128 -11.216391178530614 1.870558092094204 0 0 0 -24.362056817574707 29.956970930708437 -32.66702468907349 40.92455504501344 -56.46018869566538 -79.64022017185951 1.2701203114900677 -11.927889397957887 -105.87196190582927 99.41334230429005 50.058131731023714 141.35856912451695 0 0 0 0 0 0 0 0 0 0 0 0 0 0 0 0 0 0 0 0 0 0 0 0 0 0 0 0 0 0 0 0 0 0 0 0 0 0 0 0 0 0 0 0 0 8.821973753408631 -1.8331562215929291 15.682602153513772 0 -3.645327826300782 0 0 0 0 0 0 0 0 0 0 20.457247374395124 31.83381505810156 29.885650260373804 -41.461621798817454 -56.47477862196243 79.20542889483204 -1.23496440920236 -11.856282469774818 106.80662907115628 -104.74057287435434 51.36451087012821 -138.78230020310005 0 0 0 0 0 0 0 0 0 0 0 0 0 0 0 0 0 0 0 0 0 0 0 0 0 0 0 0 0 0 0 0 0 0 0 0 0 0 0 0 0 0 0 0 0
0.11528199550955653 -0.21041470964307968 3.379990016924938 0 31.88807335079096 0 20.674219829887516 -59.06918891768991 -3.201103853464728 5.335339592171966 26.951177489234315 3.452854894909512 8.494770708505195 7.399563351195924 5.372507252084875 0 0 0 -16.523931551952263 -58.90210365279221 -1.0173521061648758 -4.983325936189219 25.514713132649284 -3.2541187738460335 -10.097589491597011 9.45507565345321 -4.023091201543175 0 0 0 -0.44577473693133657 -3.2852427446368258 0.30198488999277273 -1.9587522128018031 -11.918380682099837 1.8949587622900654 0 0 0 -24.34119904949875 30.117093843222033 -32.680291781617264 40.92455504501344 -56.46018869566538 -79.64022017185951 1.259267257065026 -11.906265121718768 -106.057753411912 99.19725073216091 49.825975280940185 141.11158837137978 0 0 0 0 0 0 0 0 0 0 0 0 0 0 0 0 0 0 0 0 0 0 0 0 0 0 0 0 0 0 0 0 0 0 0 0 0 0 0 0 0 0 0 0 0 8.776621134712494 -2.3090853037489376 15.513070432129316 0 -4.712214084566547 0 0 0 0 0 0 0 0 0 0 20.419240910670666 31.994382665706397 29.882553529607446 -41.461621798817454 -56.47477862196243 79.20542889483204 -1.23496440920236 -11.856282469774818 106.80662907115628 -104.74057287435434 51.36451087012821 -138.78230020310005 0 0 0 0 0 0 0 0 0 0 0 0 0 0 0 0 0 0 0 0 0 0 0 0 0 0 0 0 0 0 0 0 0 0 0 0 0 0 0 0 0 0 0 0 0
